#N canvas 1110 134 462 574 12;
#X obj 93 498 outlet~;
#X obj 94 49 inlet~;
#X obj 171 309 r dtime\$1;
#X obj 135 125 delwrite~ delay\$0 5000;
#X obj 171 339 delread~ delay\$0 0;
#X obj 170 427 *~;
#X obj 188 400 r dvol\$1;
#X obj 274 402 *~;
#X obj 274 427 s~ feedback\$0;
#X obj 158 79 r~ feedback\$0;
#X obj 292 375 r dfeed\$1;
#X obj 94 230 *~;
#X obj 112 195 r dryvol;
#X connect 1 0 3 0;
#X connect 1 0 11 0;
#X connect 2 0 4 0;
#X connect 4 0 5 0;
#X connect 4 0 7 0;
#X connect 5 0 0 0;
#X connect 6 0 5 1;
#X connect 7 0 8 0;
#X connect 9 0 3 0;
#X connect 10 0 7 1;
#X connect 11 0 0 0;
#X connect 12 0 11 1;
