#N canvas 302 40 329 626 10;
#X obj 64 554 dac~;
#X obj 64 474 tabread4~ test;
#X obj 91 95 samplerate~;
#X obj 64 125 /;
#X obj 64 434 *~;
#X msg 64 155 1 \$1;
#X obj 64 185 /;
#X obj 64 364 phasor~;
#X obj 64 294 f;
#X obj 64 324 * 1;
#X obj 64 35 r table-size;
#X obj 64 514 *~ 0.707;
#X obj 64 65 t a b;
#X obj 80 256 t b a;
#X obj 169 474 table test 30000;
#X obj 79 404 r table-size @hv_param 0 1e+06 0;
#X obj 80 226 r speed @hv_param 0 2 1;
#X connect 1 0 11 0;
#X connect 2 0 3 1;
#X connect 3 0 5 0;
#X connect 4 0 1 0;
#X connect 5 0 6 0;
#X connect 6 0 8 0;
#X connect 7 0 4 0;
#X connect 8 0 9 0;
#X connect 9 0 7 0;
#X connect 10 0 12 0;
#X connect 11 0 0 0;
#X connect 11 0 0 1;
#X connect 12 0 3 0;
#X connect 12 1 2 0;
#X connect 13 0 8 0;
#X connect 13 1 9 1;
#X connect 15 0 4 1;
#X connect 16 0 13 0;
