#N canvas 7 23 1260 755 10;
#X msg 660 159 feedback \$1;
#X msg 664 228 speed \$1;
#X msg 663 279 intensity \$1;
#X obj 398 333 hv_flanger 20;
#X obj 107 341 samphold~;
#X obj 159 312 phasor~;
#X obj 399 161 osc~;
#X obj 399 205 clip~ -1 1;
#X obj 440 85 t b b;
#X msg 421 128 0;
#X obj 402 491 *~;
#X obj 106 729 dac~;
#N canvas 0 22 450 300 bitcrusher 0;
#X obj 72 95 *~;
#X obj 72 163 -~;
#X obj 86 139 wrap~;
#X obj 72 209 /~;
#X obj 74 12 inlet~;
#X obj 72 231 outlet~;
#X obj 171 7 inlet;
#X msg 171 29 \$1 100;
#X obj 164 65 line~;
#X connect 0 0 1 0;
#X connect 0 0 2 0;
#X connect 1 0 3 0;
#X connect 2 0 1 1;
#X connect 3 0 5 0;
#X connect 4 0 0 0;
#X connect 6 0 7 0;
#X connect 7 0 8 0;
#X connect 8 0 0 1;
#X connect 8 0 3 1;
#X restore 402 452 pd bitcrusher;
#X obj 106 523 *~;
#X obj 159 228 line~;
#X obj 192 477 c_ead 1 1000;
#X obj 159 290 *~ 12000;
#X obj 106 607 +~;
#X obj 106 701 *~ 0.5;
#X obj 1039 123 hsl 128 15 0 1 0 0 empty empty Noise_Attack -2 -8 0
10 -262144 -1 -1 0 1;
#X obj 1047 259 hsl 128 15 0 1 0 0 empty empty Noise_Decay -2 -8 0
10 -262144 -1 -1 0 1;
#X msg 159 205 1 \, 0 \$1;
#X obj 159 179 f 100;
#X obj 826 173 hsl 128 15 0 1 0 0 empty empty Noise_Sweep_Freq -2 -8
0 10 -262144 -1 -1 0 1;
#X obj 226 385 r \$0-Noise-Attack;
#X obj 226 407 * 3000;
#X obj 192 351 r \$0-Trigger;
#X obj 442 49 r \$0-Trigger;
#X obj 28 74 s \$0-Trigger;
#X obj 204 245 r \$0-Noise-Sweep-Freq;
#X obj 204 267 * 12000;
#X obj 1036 145 s \$0-Noise-Attack;
#X obj 1044 279 s \$0-Noise-Decay;
#X obj 261 453 * 3000;
#X obj 261 431 r \$0-Noise-Decay;
#X obj 823 193 s \$0-Noise-Sweep-Freq;
#X obj 695 422 hsl 128 15 0 1 0 0 empty empty Osc_Attack -2 -8 0 10
-262144 -1 -1 0 1;
#X obj 695 524 hsl 128 15 0 1 0 0 empty empty Osc_Decay -2 -8 0 10
-262144 -1 -1 0 1;
#X obj 688 705 hsl 128 15 0 1 0 0 empty empty Osc_Amount -2 -8 0 10
-262144 -1 -1 0 1;
#X obj 689 623 hsl 128 15 0 1 0 0 empty empty Osc_Freq -2 -8 0 10 -262144
-1 -1 0 1;
#X obj 186 52 r \$0-Noise-Attack;
#X obj 198 75 r \$0-Noise-Decay;
#X obj 186 125 +;
#X obj 198 97 t b f;
#X obj 186 152 * 3000;
#X obj 69 244 hv_pinknoise;
#X obj 159 28 r \$0-Trigger;
#X obj 692 544 s \$0-Osc-Decay;
#X obj 686 643 s \$0-Osc-Freq;
#X obj 532 125 r \$0-Osc-Decay;
#X obj 532 147 * 3000;
#X obj 501 75 r \$0-Osc-Attack;
#X obj 501 97 * 3000;
#X obj 399 183 *~ 500;
#X obj 398 10 r \$0-Osc-Freq;
#X obj 398 32 * 5000;
#X obj 398 54 + 100;
#X obj 826 257 hsl 128 15 0 1 0 0 empty empty Noise_Amount -2 -8 0
10 -262144 -1 -1 0 1;
#X obj 823 277 s \$0-Noise-Amount;
#X obj 197 529 r \$0-Noise-Amount;
#X obj 685 725 s \$0-Osc-Amount;
#X msg 197 551 \$1 100;
#X obj 197 573 line~;
#X obj 106 575 *~;
#X msg 434 570 \$1 100;
#X obj 434 592 line~;
#X obj 434 526 r \$0-Osc-Amount;
#X obj 400 552 *~;
#X obj 1011 369 hsl 128 15 0 1 0 0 empty empty Bitcrush_Amount -2 -8
0 10 -262144 -1 -1 0 1;
#X obj 1005 473 hsl 128 15 0 1 0 0 empty empty Flanger_Feedback -2
-8 0 10 -262144 -1 -1 0 1;
#X obj 1015 682 hsl 128 15 0 1 0 0 empty empty Flanger_Depth -2 -8
0 10 -262144 -1 -1 0 1;
#X obj 1001 588 hsl 128 15 0 1 0 0 empty empty Flanger_Speed -2 -8
0 10 -262144 -1 -1 0 1;
#X msg 658 87 mix 0.7;
#X obj 1012 702 s \$0-Flanger-Depth;
#X obj 998 608 s \$0-Flanger-Speed;
#X obj 1002 493 s \$0-Flanger-Feedback;
#X obj 1008 391 s \$0-Bitcrush-Amount;
#X obj 658 65 loadbang;
#X obj 508 363 r \$0-Bitcrush-Amount;
#X msg 508 387 1 \$1;
#X obj 508 409 -;
#X obj 508 431 * 10;
#X obj 508 453 max 0.1;
#X obj 663 254 r \$0-Flanger-Depth;
#X obj 664 182 r \$0-Flanger-Speed;
#X obj 664 204 * 20;
#X obj 660 112 r \$0-Flanger-Feedback;
#X obj 660 134 min 0.98;
#X obj 434 548 * 0.3;
#X obj 106 669 hip~ 5;
#X obj 106 647 clip~ -1 1;
#X obj 632 308 t a;
#X obj 469 171 c_ead 5 100;
#X obj 692 444 s \$0-Osc-Attack;
#X obj 1037 82 r noise-attack @hv_param 0 1 0.17;
#X obj 1043 205 r noise-decay @hv_param 0 1 0.56;
#X obj 1012 335 r bitcrush @hv_param 0 1 0.92;
#X obj 822 141 r noise-sweep @hv_param 0 1 0.36;
#X obj 823 221 r noise-amount @hv_param 0 1 0.54;
#X obj 1001 434 r flanger-fb @hv_param 0 1 0.94;
#X obj 999 644 r flanger-depth @hv_param 0 1 1;
#X obj 989 551 r flanger-speed @hv_param 0 1 0.61;
#X obj 682 577 r osc-freq @hv_param 0 1 0.3;
#X obj 692 386 r osc-attack @hv_param 0 1 0;
#X obj 689 486 r osc-decay @hv_param 0 1 0.66;
#X obj 685 670 r osc-amount @hv_param 0 1 0.8;
#X obj 28 28 r trigger;
#X obj 28 50 t b;
#X connect 0 0 91 0;
#X connect 1 0 91 0;
#X connect 2 0 91 0;
#X connect 3 0 12 0;
#X connect 4 0 13 0;
#X connect 5 0 4 1;
#X connect 6 0 53 0;
#X connect 7 0 3 0;
#X connect 8 0 9 0;
#X connect 8 1 92 0;
#X connect 9 0 6 1;
#X connect 10 0 67 0;
#X connect 12 0 10 0;
#X connect 13 0 63 0;
#X connect 14 0 16 0;
#X connect 15 0 13 1;
#X connect 16 0 5 0;
#X connect 17 0 90 0;
#X connect 18 0 11 0;
#X connect 18 0 11 1;
#X connect 19 0 31 0;
#X connect 20 0 32 0;
#X connect 21 0 14 0;
#X connect 22 0 21 0;
#X connect 23 0 35 0;
#X connect 24 0 25 0;
#X connect 25 0 15 1;
#X connect 26 0 15 0;
#X connect 27 0 8 0;
#X connect 29 0 30 0;
#X connect 30 0 16 1;
#X connect 33 0 15 2;
#X connect 34 0 33 0;
#X connect 36 0 93 0;
#X connect 37 0 47 0;
#X connect 38 0 60 0;
#X connect 39 0 48 0;
#X connect 40 0 42 0;
#X connect 41 0 43 0;
#X connect 42 0 44 0;
#X connect 43 0 42 0;
#X connect 43 1 42 1;
#X connect 44 0 22 1;
#X connect 45 0 4 0;
#X connect 46 0 22 0;
#X connect 49 0 50 0;
#X connect 50 0 92 2;
#X connect 51 0 52 0;
#X connect 52 0 92 1;
#X connect 53 0 7 0;
#X connect 54 0 55 0;
#X connect 55 0 56 0;
#X connect 56 0 6 0;
#X connect 57 0 58 0;
#X connect 59 0 61 0;
#X connect 61 0 62 0;
#X connect 62 0 63 1;
#X connect 63 0 17 0;
#X connect 64 0 65 0;
#X connect 65 0 67 1;
#X connect 66 0 88 0;
#X connect 67 0 17 1;
#X connect 68 0 76 0;
#X connect 69 0 75 0;
#X connect 70 0 73 0;
#X connect 71 0 74 0;
#X connect 72 0 91 0;
#X connect 77 0 72 0;
#X connect 78 0 79 0;
#X connect 79 0 80 0;
#X connect 80 0 81 0;
#X connect 81 0 82 0;
#X connect 82 0 12 1;
#X connect 83 0 2 0;
#X connect 84 0 85 0;
#X connect 85 0 1 0;
#X connect 86 0 87 0;
#X connect 87 0 0 0;
#X connect 88 0 64 0;
#X connect 89 0 18 0;
#X connect 90 0 89 0;
#X connect 91 0 3 1;
#X connect 92 0 10 1;
#X connect 94 0 19 0;
#X connect 95 0 20 0;
#X connect 96 0 68 0;
#X connect 97 0 23 0;
#X connect 98 0 57 0;
#X connect 99 0 69 0;
#X connect 100 0 70 0;
#X connect 101 0 71 0;
#X connect 102 0 39 0;
#X connect 103 0 36 0;
#X connect 104 0 37 0;
#X connect 105 0 38 0;
#X connect 106 0 107 0;
#X connect 107 0 28 0;
