#N canvas 77 139 526 602 10;
#X obj 157 65 max 0.1;
#X obj 258 65 max 0.1;
#X text 156 22 attack (ms);
#X text 256 22 decay (ms);
#X text 86 22 trigger;
#X obj 87 45 inlet;
#X obj 158 45 inlet;
#X obj 258 45 inlet;
#X obj 144 537 outlet~;
#X obj 87 65 b;
#X obj 248 223 pack 3 4;
#X text 129 283 attack;
#X text 361 311 decay;
#X obj 87 195 f 3;
#X obj 251 127 f \$1;
#X obj 251 102 loadbang;
#X obj 251 153 select 0;
#X obj 325 101 loadbang;
#X obj 325 152 select 0;
#X obj 325 126 f \$2;
#X msg 21 261 1;
#X obj 21 239 loadbang;
#X obj 62 407 sig~ 1;
#X obj 61 480 -~;
#X obj 78 457 *~;
#X obj 78 436 *~;
#X obj 231 464 *~;
#X obj 232 441 *~;
#X obj 133 401 line~;
#X obj 138 304 t f b f;
#X obj 183 341 del 100;
#X msg 183 363 1 0;
#X msg 112 339 1 \, 0 \$1;
#X obj 87 217 t f f;
#X obj 248 245 unpack f f;
#X obj 295 352 f;
#X obj 297 308 del 100;
#X obj 266 417 line~;
#X obj 248 267 t b b f;
#X msg 252 308 0;
#X floatatom 258 87 5 0 0 0 - - -, f 5;
#X obj 297 330 t b b;
#X msg 336 374 1;
#X msg 295 374 0 \$1;
#X connect 0 0 13 1;
#X connect 1 0 10 1;
#X connect 1 0 40 0;
#X connect 5 0 9 0;
#X connect 6 0 0 0;
#X connect 7 0 1 0;
#X connect 9 0 13 0;
#X connect 10 0 34 0;
#X connect 13 0 33 0;
#X connect 14 0 16 0;
#X connect 15 0 14 0;
#X connect 16 1 13 1;
#X connect 17 0 19 0;
#X connect 18 1 10 1;
#X connect 19 0 18 0;
#X connect 20 0 28 0;
#X connect 21 0 20 0;
#X connect 22 0 23 0;
#X connect 23 0 8 0;
#X connect 24 0 23 1;
#X connect 25 0 24 0;
#X connect 25 0 24 1;
#X connect 26 0 8 0;
#X connect 27 0 26 0;
#X connect 27 0 26 1;
#X connect 28 0 25 0;
#X connect 28 0 25 1;
#X connect 29 0 32 0;
#X connect 29 1 30 0;
#X connect 29 2 30 1;
#X connect 30 0 31 0;
#X connect 31 0 28 0;
#X connect 32 0 28 0;
#X connect 33 0 29 0;
#X connect 33 1 10 0;
#X connect 34 0 38 0;
#X connect 34 1 35 1;
#X connect 35 0 43 0;
#X connect 36 0 41 0;
#X connect 37 0 27 0;
#X connect 37 0 27 1;
#X connect 38 0 39 0;
#X connect 38 1 36 0;
#X connect 38 2 36 1;
#X connect 39 0 37 0;
#X connect 41 0 35 0;
#X connect 41 1 42 0;
#X connect 42 0 37 0;
#X connect 43 0 37 0;
